# xmcd
#
# Track frame offsets: 
#        187
#        26125
#        38405
#        56675
#        76725
#        87317
#        101600
#        116925
#        136297
#        171450
#        192900
#        211877
#        229312
#        244945
#        260027
#        281362
#        299100
#        318627
#
# Disc length: 4487 seconds
#
# Revision: 5
# Processed by: cddbd v1.5.2PL0 Copyright (c) Steve Scherf et al.
# Submitted via: ExactAudioCopy v1.0b3
#
DISCID=13118512
DTITLE=Thin Lizzy - Dedication: The Very Best Of Thin Lizzy
DYEAR=1991
DGENRE=Hard Rock
TTITLE0=Whisky In The Jar
TTITLE1=The Rocker
TTITLE2=Jailbreak
TTITLE3=The Boys Are Back In Town
TTITLE4=Don't Believe A Word
TTITLE5=Bad Reputation
TTITLE6=Dancin' In The Moonlight (It's Caugth Me In Its Spootlight)
TTITLE7=Rosalie - Cowgirl Song [Live]
TTITLE8=Still In Love With You [Live]
TTITLE9=Emerald [Live]
TTITLE10=Waiting For An Alibi
TTITLE11=Do Anything You Want To
TTITLE12=Sarah
TTITLE13=Gary Moore - Parisienne Walkways
TTITLE14=China Town
TTITLE15=Killer On The Loose
TTITLE16=Gary Moore And Phil Lynott - Out In The Fields
TTITLE17=Dedication
EXTD=YEAR: 1991
EXTT0=
EXTT1=
EXTT2=
EXTT3=
EXTT4=
EXTT5=
EXTT6=
EXTT7=
EXTT8=
EXTT9=
EXTT10=
EXTT11=
EXTT12=
EXTT13=
EXTT14=
EXTT15=
EXTT16=
EXTT17=
PLAYORDER=
